<?xml version="1.0" encoding="UTF-8"?>
<svg version="1.1" xmlns="http://www.w3.org/2000/svg" width="342" height="84">
<path d="M0 0 C7.76785714 -0.66964286 7.76785714 -0.66964286 11.4375 2.3125 C15.0484787 6.099624 15.35693939 9.12864574 15.2734375 14.2890625 C13.79706888 28.92620285 5.58426417 42.23613408 -4 53 C-4.6496875 53.7321875 -5.299375 54.464375 -5.96875 55.21875 C-11.14699761 60.72577523 -16.68998953 65.17115183 -24.25 66.625 C-29.00192143 65.54501786 -31.05888985 62.39423726 -33.6875 58.5 C-35.69041311 53.15889837 -36.28869941 47.64019529 -37 42 C-37.66 42 -38.32 42 -39 42 C-46.69147976 50.64425315 -53.7808268 62.16464729 -54 74 C-53.35932024 77.08759559 -53.35932024 77.08759559 -51.15234375 77.94921875 C-50.42144531 78.19285156 -49.69054687 78.43648438 -48.9375 78.6875 C-48.20402344 78.93886719 -47.47054687 79.19023438 -46.71484375 79.44921875 C-46.14894531 79.63097656 -45.58304688 79.81273438 -45 80 C-45 81.32 -45 82.64 -45 84 C-52.99651568 84.6271777 -52.99651568 84.6271777 -57 82.125 C-61.01634371 77.85763481 -60.38997607 73.51832405 -60.34375 67.8671875 C-59.79373946 61.67956888 -57.65894149 56.56408127 -55 51 C-54.55398437 50.05253906 -54.10796875 49.10507812 -53.6484375 48.12890625 C-47.79881826 36.60940466 -37.66909838 22.50456831 -25 18 C-21.37786533 17.48255219 -19.61898645 17.675769 -16.375 19.375 C-10.26366932 26.12962865 -8.82704517 35.17930387 -9 44 C-8.34 44 -7.68 44 -7 44 C-6.73832031 43.43410156 -6.47664063 42.86820313 -6.20703125 42.28515625 C-4.89772431 39.80637127 -3.35895758 37.68711143 -1.6875 35.4375 C4.29926343 27.01353642 8.49555726 18.40670238 8 8 C5.53721199 5.53721199 3.29323018 5.00228745 0 4 C0 2.68 0 1.36 0 0 Z " fill="#03AFBE" transform="translate(60,0)"/>
<path d="M0 0 C2.64 0 5.28 0 8 0 C9.93925795 3.54070678 11.87609121 7.08273433 13.8125 10.625 C14.35970703 11.62402344 14.90691406 12.62304688 15.47070312 13.65234375 C16.00244141 14.62558594 16.53417969 15.59882812 17.08203125 16.6015625 C17.56905518 17.49182129 18.0560791 18.38208008 18.55786133 19.29931641 C20.09173142 22.17178483 21.54371484 25.08742968 23 28 C23.33 18.76 23.66 9.52 24 0 C26.64 0 29.28 0 32 0 C32 15.84 32 31.68 32 48 C29.03 48 26.06 48 23 48 C18.38 38.76 13.76 29.52 9 20 C8.67 29.24 8.34 38.48 8 48 C5.36 48 2.72 48 0 48 C0 32.16 0 16.32 0 0 Z " fill="#088396" transform="translate(93,18)"/>
<path d="M0 0 C3.3 0 6.6 0 10 0 C12.64 10.23 15.28 20.46 18 31 C20.57585121 24.13251016 20.57585121 24.13251016 22.60546875 17.1875 C22.86650391 16.17558594 23.12753906 15.16367187 23.39648438 14.12109375 C23.65751953 13.09113281 23.91855469 12.06117187 24.1875 11 C24.46013672 9.93910156 24.73277344 8.87820312 25.01367188 7.78515625 C25.67971079 5.19110993 26.34040392 2.59569204 27 0 C30.3 0 33.6 0 37 0 C34.81627934 9.19850334 32.23778544 18.25937209 29.55615234 27.32177734 C28.86614023 29.65495809 28.18088583 31.98950119 27.49609375 34.32421875 C27.05756877 35.81258167 26.61877685 37.30086598 26.1796875 38.7890625 C25.97552216 39.48480377 25.77135681 40.18054504 25.56100464 40.89736938 C24.11534753 45.76930495 24.11534753 45.76930495 23 48 C20.03 48 17.06 48 14 48 C10.00395143 35.73558049 6.04860101 23.46509039 2.5 11.0625 C2.24524902 10.17602783 1.99049805 9.28955566 1.72802734 8.3762207 C0 2.26031173 0 2.26031173 0 0 Z " fill="#088396" transform="translate(224,18)"/>
<path d="M0 0 C3.00197464 1.80118478 4.45166366 2.90332732 6 6 C6.14092854 7.65681833 6.22583934 9.31859105 6.28125 10.98046875 C6.31863281 11.98013672 6.35601562 12.97980469 6.39453125 14.00976562 C6.44673828 15.58274414 6.44673828 15.58274414 6.5 17.1875 C6.7142992 23.52520051 6.93773491 29.74148816 8 36 C7.21496094 35.98839844 6.42992187 35.97679687 5.62109375 35.96484375 C-1.15637301 35.90217817 -1.15637301 35.90217817 -7.875 36.6875 C-11.85709866 37.08570987 -13.71103066 36.21814211 -17 34 C-19.39078647 31.06585297 -19.42051808 27.75151283 -19.31640625 24.03125 C-18.78254307 20.60398018 -17.25665977 18.56161379 -15 16 C-10.83083462 13.45217671 -6.74277647 13.83922792 -2 14 C-2.66 12.02 -3.32 10.04 -4 8 C-6.47266765 8.34444881 -6.47266765 8.34444881 -9 9 C-9.33 9.66 -9.66 10.32 -10 11 C-12.64 11 -15.28 11 -18 11 C-18.3125 8.8125 -18.3125 8.8125 -18 6 C-12.52838292 -0.33555662 -8.12344435 -0.87916064 0 0 Z M-10 22 C-10.33340471 25.04195427 -10.33340471 25.04195427 -10 28 C-8.94689723 29.27003323 -8.94689723 29.27003323 -6.5625 29.1875 C-3.83265325 29.26839983 -3.83265325 29.26839983 -2 27 C-1.83322718 23.41656024 -1.83322718 23.41656024 -2 20 C-5.71599191 19.79913557 -6.77208445 19.8480563 -10 22 Z " fill="#088496" transform="translate(334,30)"/>
<path d="M0 0 C3.46679688 0.04882812 3.46679688 0.04882812 6.93359375 0.09765625 C8.25359375 5.70765625 9.57359375 11.31765625 10.93359375 17.09765625 C12.87009491 11.46419834 14.56348726 5.89426062 15.93359375 0.09765625 C18.90359375 0.09765625 21.87359375 0.09765625 24.93359375 0.09765625 C23.44585011 8.25625041 21.38680312 16.21383851 19.15722656 24.19433594 C18.55663479 26.35470276 17.97165376 28.51894296 17.38671875 30.68359375 C16.9996504 32.07708784 16.61166153 33.47032663 16.22265625 34.86328125 C15.87928223 36.10883789 15.5359082 37.35439453 15.18212891 38.63769531 C13.5497788 43.16129048 11.33212677 46.69912323 7.93359375 50.09765625 C5.2451999 50.36757531 2.64217439 50.18502982 -0.06640625 50.09765625 C-0.06640625 47.78765625 -0.06640625 45.47765625 -0.06640625 43.09765625 C0.73796875 42.80890625 1.54234375 42.52015625 2.37109375 42.22265625 C5.06624055 41.36503057 5.06624055 41.36503057 5.93359375 39.09765625 C6.0322013 30.61740665 3.2663843 22.5066014 0.87109375 14.47265625 C0.48942706 13.16950701 0.10856199 11.86612271 -0.27148438 10.5625 C-1.19529896 7.40515903 -2.12709021 4.25041324 -3.06640625 1.09765625 C-2.06640625 0.09765625 -2.06640625 0.09765625 0 0 Z " fill="#088396" transform="translate(290.06640625,29.90234375)"/>
<path d="M0 0 C4.27381381 1.69171797 6.00330407 3.90677335 8 8 C10.47232844 15.91488479 9.77898891 24.70264211 6 32 C2.65129513 35.84116147 -0.71591206 36.8179354 -5.65234375 37.1640625 C-9.68553467 36.88220889 -12.78297817 35.39951981 -16 33 C-20.59689198 27.21681332 -20.58471417 20.10319438 -20 13 C-18.98997711 8.06971877 -17.1077758 3.93459057 -12.94140625 0.84375 C-8.78806789 -0.96132261 -4.40225744 -0.61161134 0 0 Z M-8.6875 8.375 C-11.21577 11.50523905 -11.19136347 13.84964764 -11.25 17.8125 C-11.27578125 18.85019531 -11.3015625 19.88789062 -11.328125 20.95703125 C-10.95632199 24.40506157 -10.09420901 26.25758344 -8 29 C-5.5 29.75 -5.5 29.75 -3 29 C-0.65340604 26.65340604 -0.03394773 25.26059873 0.3984375 21.94140625 C0.39070313 20.82636719 0.38296875 19.71132813 0.375 18.5625 C0.38273437 17.45003906 0.39046875 16.33757813 0.3984375 15.19140625 C-0.04160949 11.66671617 -0.73979065 9.73577376 -3 7 C-6.8459699 6.5788847 -6.8459699 6.5788847 -8.6875 8.375 Z " fill="#088396" transform="translate(279,30)"/>
<path d="M0 0 C3.00197464 1.80118478 4.45166366 2.90332732 6 6 C6.14130804 7.74158521 6.22595706 9.48794157 6.28125 11.234375 C6.31863281 12.28367187 6.35601562 13.33296875 6.39453125 14.4140625 C6.44673828 16.06535156 6.44673828 16.06535156 6.5 17.75 C6.56931422 19.91157686 6.64212583 22.07304492 6.71875 24.234375 C6.74904297 25.19569336 6.77933594 26.15701172 6.81054688 27.14746094 C7.00991927 30.14935151 7.45941542 33.04210502 8 36 C4 36 0 36 -4 36 C-5.093125 36.226875 -6.18625 36.45375 -7.3125 36.6875 C-11.62814 37.0532322 -13.44027933 36.40074185 -17 34 C-19.39078647 31.06585297 -19.42051808 27.75151283 -19.31640625 24.03125 C-18.78254307 20.60398018 -17.25665977 18.56161379 -15 16 C-10.83083462 13.45217671 -6.74277647 13.83922792 -2 14 C-2.66 12.02 -3.32 10.04 -4 8 C-6.47266765 8.34444881 -6.47266765 8.34444881 -9 9 C-9.33 9.66 -9.66 10.32 -10 11 C-12.97 11 -15.94 11 -19 11 C-17.79271637 6.57329336 -16.52441688 3.97372674 -13 1 C-9.0649579 -0.96752105 -4.2894478 -0.46422595 0 0 Z M-10 22 C-10.25005386 25.04182893 -10.25005386 25.04182893 -10 28 C-8.94689723 29.27003323 -8.94689723 29.27003323 -6.5625 29.1875 C-3.83265325 29.26839983 -3.83265325 29.26839983 -2 27 C-1.83322718 23.41656024 -1.83322718 23.41656024 -2 20 C-6.49304582 19.57496554 -6.49304582 19.57496554 -10 22 Z " fill="#088496" transform="translate(204,30)"/>
<path d="M0 0 C3.87047731 3.58727165 5.66844818 7.21304761 5.99609375 12.46875 C6.01317109 13.93740129 6.0141964 15.40631803 6 16.875 C6.0299707 17.97521484 6.0299707 17.97521484 6.06054688 19.09765625 C6.05510006 25.18719711 4.08189691 28.76562463 -0.1875 33.1875 C-5.06148614 35.75988157 -9.06907767 35.7855267 -14.1875 34.25 C-18.59558961 31.70687138 -20.83010747 29.19717759 -22.4375 24.375 C-23.04765184 15.94290165 -23.49950866 8.48917433 -18.4375 1.375 C-13.39908141 -3.36704103 -5.90568775 -2.79177966 0 0 Z M-10.4375 5.375 C-13.64279453 8.58029453 -14.08712465 11.7134507 -14.4453125 16.0546875 C-14.43048556 20.45828861 -13.6295187 24.1829813 -10.4375 27.375 C-7.9375 27.70833333 -7.9375 27.70833333 -5.4375 27.375 C-2.24581935 24.18331935 -2.26853982 20.82040351 -2.1875 16.4375 C-2.24243559 12.29901922 -2.49878307 9.51638706 -5.4375 6.375 C-8.02872743 5.48841534 -8.02872743 5.48841534 -10.4375 5.375 Z " fill="#088496" transform="translate(151.4375,31.625)"/>
<path d="M0 0 C2.97 0 5.94 0 9 0 C9.67449966 2.39387157 10.33976641 4.78969221 11 7.1875 C11.19078125 7.86103516 11.3815625 8.53457031 11.578125 9.22851562 C12.5825836 12.90555156 13.23704741 16.1850182 13 20 C13.66 20 14.32 20 15 20 C15.1546875 18.1128125 15.1546875 18.1128125 15.3125 16.1875 C15.91590491 10.6148782 17.40690933 5.36039942 19 0 C21.97 0 24.94 0 28 0 C25.11662111 12.14411346 21.6668448 24.0705316 18 36 C15.36 36 12.72 36 10 36 C2.26198036 11.22373113 2.26198036 11.22373113 0 0 Z " fill="#088396" transform="translate(157,30)"/>
</svg>
